<?xml version="1.0" encoding="UTF-8"?>
<!-- SPDX-License-Identifier: Apache-2.0 -->
<!-- HuskyCat Symbolic Icon - For system tray and monochrome contexts -->
<svg xmlns="http://www.w3.org/2000/svg" viewBox="0 0 16 16" width="16" height="16">
  <!-- Simple checkmark in code brackets for tray icon -->
  <g fill="none" stroke="currentColor" stroke-width="1.5" stroke-linecap="round" stroke-linejoin="round">
    <!-- Left bracket -->
    <path d="M4 3 C3 3, 2 4, 2 5 L2 7 C2 7.5, 1.5 8, 1 8 C1.5 8, 2 8.5, 2 9 L2 11 C2 12, 3 13, 4 13"/>
    <!-- Right bracket -->
    <path d="M12 3 C13 3, 14 4, 14 5 L14 7 C14 7.5, 14.5 8, 15 8 C14.5 8, 14 8.5, 14 9 L14 11 C14 12, 13 13, 12 13"/>
    <!-- Checkmark -->
    <polyline points="5.5,8 7,9.5 10.5,6"/>
  </g>
</svg>
